<?xml version="1.0" encoding="utf-8"?>
<!-- Generator: Adobe Illustrator 18.1.1, SVG Export Plug-In . SVG Version: 6.00 Build 0)  -->
<svg version="1.1" id="Layer_1" xmlns="http://www.w3.org/2000/svg" xmlns:xlink="http://www.w3.org/1999/xlink" x="0px" y="0px"
	 viewBox="0 0 500 500" enable-background="new 0 0 500 500" xml:space="preserve">
<g>
	<path fill="#FFFFFF" d="M456.8,316.6C456.8,316.6,456.8,316.6,456.8,316.6c-3.5,0-7.3-0.2-11.2-0.6c-0.9-0.1-2.9-0.2-3.8,1.4
		c-13.1,24.5-35.1,39-61.2,39H120.2c-26.1,0-48.3-15-61.4-39.4c-0.7-1.2-2.2-1.1-2.9-1c-4.2,0.5-8.1,0.7-11.9,0.7
		c-2.4,0-4.7-0.1-6.9-0.3c-2.4-0.2-5.3,0-5.3,1.7c10,39.8,39.3,66,75.8,66h285.6c36.5,0,66.7-26.4,76.7-66.1c0.4-2.2-1.7-2.2-2.9-2
		C463.8,316.3,460.4,316.6,456.8,316.6z"/>
	<g>
		<path fill="#FFFFFF" d="M98.3,152.3c-1.2-2.1-3.2-1.1-4.3-0.5c-50.6,26.6-82.6,65.8-82.6,109.5c0,56,52.4,33.6,129.1,15.1
			c1.1-0.3,3-1.6,2.1-4.1L98.3,152.3z"/>
		<path fill="#FFFFFF" d="M269.6,119.5v140.4c0,1.9,1.3,2.1,2,2.1c29.6,1.8,57.7,7.2,83.3,13.2c1.2,0.3,3.5,0.6,4.5-1.3l53.1-115.7
			c1.1-2-0.6-3.6-1.4-4.1c-37.2-20.5-85.2-34-138.2-37C271.8,117,269.6,117.1,269.6,119.5z"/>
		<path fill="#FFFFFF" d="M251.9,119.2c0-2.3-2.8-2.7-3.4-2.7c-48.8,0.2-94.1,9.3-131.7,24.8c-1.1,0.4-2.8,1.8-2.1,4.2l45.9,124.2
			c1,2.1,3.1,1.6,4,1.4c26.3-5.5,55.2-9.7,85-9.8c0.6,0,2.3,0,2.3-1.5V119.2z"/>
		<path fill="#FFFFFF" d="M427.4,168.2c-14.5,27.2-50.9,110.7-50.9,110.7c-0.6,1.3,0.8,1.8,1.4,2c67,17.1,111.4,32,111.4-19.5
			c0-36.1-21.8-69.1-57.8-94.4C430.7,166.2,428.5,166.1,427.4,168.2z"/>
	</g>
</g>
</svg>
