<svg width="177" height="60" viewBox="0 0 177 60" fill="none" xmlns="http://www.w3.org/2000/svg">
<g clip-path="url(#clip0_3278_8008)">
<mask id="mask0_3278_8008" style="mask-type:alpha" maskUnits="userSpaceOnUse" x="0" y="0" width="28" height="28">
<rect width="27.5622" height="27.5622" fill="#C4C4C4"/>
</mask>
<g mask="url(#mask0_3278_8008)">
<path fill-rule="evenodd" clip-rule="evenodd" d="M0.000488281 13.8306L9.78162 9.581V6.4199C12.8452 5.92701 15.7102 4.34558 17.6853 1.97345L27.4664 9.97636V-0.00158691H0.000488281V13.8306Z" fill="#CD223F"/>
<path fill-rule="evenodd" clip-rule="evenodd" d="M9.8809 22.9185H17.7845V1.97339C15.8078 4.34552 12.9427 5.92695 9.8809 6.41983V9.58094L0.000488281 13.8306V16.8924L9.8809 12.5452V9.58094L12.9427 8.19806V11.2616L9.8809 12.6445V15.6071L13.042 14.2242V17.1885L9.8809 18.6706V15.7063L0.000488281 19.956V22.9185L9.8809 18.5714V22.9185Z" fill="#FFFFFE"/>
<path fill-rule="evenodd" clip-rule="evenodd" d="M9.78162 15.6078V12.6452L0.000488281 16.8931V19.9567L9.78162 15.6078Z" fill="#E87D34"/>
<path fill-rule="evenodd" clip-rule="evenodd" d="M9.78162 18.6692L0.000488281 22.9171H9.78162V18.6692Z" fill="#E87D34"/>
<path fill-rule="evenodd" clip-rule="evenodd" d="M9.77686 12.6444L12.938 11.2615V8.19794L9.77686 9.58081V12.6444Z" fill="#E87D34"/>
<path fill-rule="evenodd" clip-rule="evenodd" d="M9.77686 15.6078V18.6714L12.938 17.2885V14.2249L9.77686 15.6078Z" fill="#E87D34"/>
<path fill-rule="evenodd" clip-rule="evenodd" d="M17.7838 22.9185H27.565V10.0756L17.6846 1.97339L17.7838 22.9185Z" fill="#E67C35"/>
<path fill-rule="evenodd" clip-rule="evenodd" d="M17.6846 22.9185H17.7838L17.6846 1.97339V22.9185Z" fill="#E46B32"/>
<path fill-rule="evenodd" clip-rule="evenodd" d="M17.7845 22.9188H0.000488281V27.562H27.5657V22.9188H17.7845Z" fill="#005899"/>
</g>
</g>
<rect x="31.562" width="27.5622" height="27.5622" rx="3" fill="white"/>
<path fill-rule="evenodd" clip-rule="evenodd" d="M49.3446 25.1776C45.5069 25.1776 34.397 22.0719 34.397 18.2314C34.397 14.4015 45.5069 11.2906 49.3446 11.2906C53.1798 11.2906 56.2881 14.4015 56.2881 18.2314C56.2881 22.0719 53.1798 25.1776 49.3446 25.1776Z" fill="#1C874E"/>
<path fill-rule="evenodd" clip-rule="evenodd" d="M45.9216 13.8997C43.4244 12.3857 37.4233 5.96916 38.9387 3.47462C40.4527 0.978719 48.9142 3.34322 51.4101 4.86383C53.9047 6.37535 54.7038 9.62957 53.1857 12.1267C51.6703 14.6226 48.4201 15.419 45.9216 13.8997Z" fill="#ACCD53"/>
<path fill-rule="evenodd" clip-rule="evenodd" d="M43.8193 12.231C44.6144 12.9722 45.3578 13.5647 45.9221 13.9069C48.3429 15.379 51.4694 14.6771 53.0399 12.3619C51.9699 11.6878 50.7029 11.2977 49.3447 11.2977C48.0762 11.2977 46.0131 11.6376 43.8193 12.231Z" fill="#014F2A"/>
<g clip-path="url(#clip1_3278_8008)">
<rect width="27.5622" height="27.5622" transform="translate(63.1245)" fill="white"/>
<path d="M81.6037 12.9736C81.5548 12.2394 81.359 11.5053 80.9675 10.8691L77.6394 5.04499C77.3947 4.60451 77.1989 4.11509 77.101 3.62567L76.9542 3.87038C76.1222 5.28969 76.1222 7.10054 76.9542 8.51986L79.646 13.1693C80.478 14.5886 80.478 16.3995 79.646 17.8188L79.4992 18.0635C79.4013 17.5741 79.2055 17.0847 78.9608 16.6442L76.5137 12.3863L74.9476 9.64552C74.7029 9.20504 74.5071 8.71563 74.4092 8.22621L74.2624 8.47092C73.4304 9.89023 73.4304 11.6521 74.2624 13.1204L76.9542 17.7699C77.7862 19.1892 77.7862 21 76.9542 22.4193L76.8074 22.6641C76.7095 22.1746 76.5137 21.6852 76.269 21.2447L72.892 15.4207C72.4516 14.6376 72.2558 13.7566 72.2558 12.8757C68.683 13.8056 66.187 15.8122 66.187 18.1125C66.187 21.3426 70.9833 23.9365 76.9053 23.9365C82.8272 23.9365 87.6235 21.3426 87.6235 18.1125C87.6725 15.9101 85.2254 13.9035 81.6037 12.9736Z" fill="#EA1D25"/>
</g>
<g clip-path="url(#clip2_3278_8008)">
<rect x="94.6865" width="27.5622" height="27.5622" fill="#0F2B5F"/>
<path fill-rule="evenodd" clip-rule="evenodd" d="M105.604 6.77867C104.593 8.00107 102.824 8.6951 101.886 10.0833V17.7541C101.886 18.9018 101.144 18.64 101.214 19.3261L105.308 16.3595V8.37334L110.613 4.14202L110.341 4.00873C108.969 4.63133 107.572 3.33574 105.99 3.45278C103.655 3.5455 101.592 4.64922 100.046 6.35437C101.648 5.56762 104.206 5.40019 105.604 6.77867Z" fill="#F5F5F5"/>
<path fill-rule="evenodd" clip-rule="evenodd" d="M111.976 12.1585V7.98738C113.084 8.85539 114.103 11.5586 111.976 12.1585ZM112.382 20.946L111.976 20.6892V14.2407C112.426 14.2553 112.706 14.8503 112.691 15.4355C112.691 15.4355 112.725 19.9805 112.725 20.4063C112.725 20.8306 112.382 20.946 112.382 20.946ZM112.889 13.0183C114.075 12.0707 115.571 11.2644 116.436 9.87458C117.225 8.5286 115.014 5.8156 113.883 3.86994L112.905 3.59027L106.229 8.88626V17.9112C106.229 19.0052 105.703 18.693 105.731 19.2993L109.953 16.1751V7.25582L111.077 6.33098V20.2991L108.808 19.6472C105.658 19.2132 102.758 20.7883 100.965 23.2397C103.866 21.7458 107.689 22.1164 110.347 24.1175L116.183 19.5497C117.113 18.5744 116.558 16.8058 116.589 15.5558C116.416 13.4589 114.262 13.3223 112.889 13.0183Z" fill="#F5F5F5"/>
</g>
<g clip-path="url(#clip3_3278_8008)">
<rect x="126.249" width="27.5622" height="27.5622" fill="white"/>
<path fill-rule="evenodd" clip-rule="evenodd" d="M143.932 15.6708C143.932 15.6708 146.551 16.3704 145.725 20.0506C145.672 20.2474 145.672 20.4452 145.69 20.6607C145.779 21.7549 146.731 22.5451 147.826 22.4555C148.92 22.3649 149.711 21.4145 149.621 20.3192C149.441 17.753 144.613 14.6297 143.967 14.7015C143.967 14.7015 143.59 14.7192 143.571 15.2033C143.571 15.5989 143.932 15.6708 143.932 15.6708Z" fill="#188C44"/>
<path fill-rule="evenodd" clip-rule="evenodd" d="M143.122 16.8907C143.122 16.8907 144.827 17.3394 144.308 19.7455C144.308 19.7455 143.751 22.0067 140.126 22.6167C136.014 23.2986 136.086 21.7912 136.086 21.7912C136.051 21.0374 135.764 20.14 139.838 17.6633C139.838 17.6633 141.884 16.4067 143.122 16.8907Z" fill="#F9D339"/>
<path fill-rule="evenodd" clip-rule="evenodd" d="M129.428 23.0468C129.465 24.2128 130.325 25.1821 131.474 25.3622C131.636 25.3799 131.798 25.3976 131.959 25.3976C132.605 25.3799 133.216 25.0925 133.645 24.6261C134.095 24.141 134.31 23.5309 134.292 22.8855C134.292 21.126 135.082 19.8153 136.679 18.5951C138.116 17.5364 140.179 16.2444 143.069 14.6286C146.677 12.7078 149.01 10.4466 149.53 8.61528L149.549 8.56223C149.621 8.32793 149.639 8.09473 149.621 7.86154C149.584 6.69557 148.724 5.72632 147.574 5.54617C147.413 5.52849 147.251 5.5108 147.09 5.5108C146.444 5.52849 145.833 5.81584 145.402 6.28222C144.954 6.7663 144.738 7.37747 144.756 8.0229C144.756 9.87188 143.644 11.092 142.135 12.5288C138.923 15.0408 135.962 16.2798 135.962 16.2798C132.353 18.2006 130.02 20.4618 129.5 22.2931L129.482 22.3461C129.446 22.5793 129.41 22.8125 129.428 23.0468Z" fill="#DB3942"/>
<path fill-rule="evenodd" clip-rule="evenodd" d="M133.251 5.74453C133.449 9.01036 137.971 12.7989 140.772 14.3241C141.526 14.7363 142.459 14.8446 142.854 14.7187C144.128 14.144 142.764 13.6422 142.764 13.6422C142.764 13.6422 138.367 12.4398 139.785 6.24739C139.857 5.92357 139.892 5.58317 139.874 5.22398C139.731 3.41147 138.134 2.04656 136.302 2.17256C134.49 2.31623 133.107 3.91323 133.251 5.74453Z" fill="#3366A1"/>
</g>
<g clip-path="url(#clip4_3278_8008)">
<rect y="31.5622" width="27.5622" height="27.5622" rx="3" fill="#FF6200"/>
<path d="M11.928 31.5796C11.1345 31.5985 10.5523 31.6264 9.48513 31.6922C8.99153 31.7216 8.45272 31.765 8.07328 31.803C7.97804 31.8133 7.7788 31.8324 7.63156 31.8463C7.01309 31.907 6.09485 32.0229 5.70863 32.0888C5.62707 32.1027 5.50755 32.1218 5.44015 32.1321C5.37429 32.1409 5.25638 32.1615 5.18017 32.1755C5.10402 32.1894 4.97576 32.2137 4.89443 32.2274C4.60841 32.2759 4.12176 32.3747 3.84632 32.4406C3.76994 32.4597 3.63311 32.4925 3.54304 32.5134C3.45291 32.534 3.37164 32.5531 3.36129 32.5549C2.85348 32.676 2.34935 32.9205 1.96135 33.2375C1.58364 33.5441 1.24597 34.0396 1.07612 34.5316C1.04852 34.6078 1.02062 34.6857 1.01211 34.7048C0.98266 34.7707 0.854399 35.3249 0.762489 35.779C0.7488 35.8551 0.724528 35.9677 0.710609 36.0301C0.696633 36.0924 0.677825 36.2015 0.665632 36.2726C0.655106 36.3436 0.64136 36.4303 0.632618 36.4631C0.606563 36.562 0.500964 37.2375 0.433325 37.7278C0.367526 38.2025 0.32416 38.5474 0.286199 38.8972C0.267104 39.0686 0.248008 39.2367 0.244615 39.2697C0.239439 39.3025 0.223737 39.4706 0.208207 39.6422C0.194288 39.8136 0.17364 40.0232 0.163057 40.11C0.12665 40.4286 0.0365222 41.8164 -0.00834019 42.7952C-0.0429648 43.5209 -0.0654536 45.075 -0.0533177 45.9222C-0.0411818 46.9789 -0.0153572 47.9232 0.00891455 48.2523C0.0177145 48.3856 0.0349693 48.6664 0.0453222 48.876C0.055675 49.0856 0.0695939 49.3541 0.0783363 49.4736C0.118137 50.073 0.149369 50.4662 0.16484 50.5909C0.17364 50.6673 0.194288 50.87 0.208207 51.0396C0.222126 51.2094 0.242832 51.4121 0.251574 51.49C0.261927 51.568 0.281022 51.736 0.294711 51.8643C0.338078 52.2748 0.371092 52.5433 0.398758 52.7219C0.412677 52.8172 0.436948 52.98 0.450637 53.0856C0.500964 53.4667 0.559802 53.8374 0.623875 54.1771C0.637794 54.2533 0.660283 54.3816 0.675985 54.4629C0.705433 54.6361 0.773014 54.981 0.821557 55.1991C0.987779 55.9633 1.06059 56.1917 1.25632 56.5678C1.30998 56.6716 1.37923 56.7929 1.41046 56.8363C1.43985 56.8797 1.48322 56.9419 1.50571 56.9749C1.60452 57.1221 1.88698 57.4097 2.04291 57.5207C2.06873 57.5396 2.11906 57.5759 2.15184 57.602C2.1867 57.6296 2.21948 57.6505 2.22822 57.6505C2.23518 57.6505 2.2525 57.6626 2.26619 57.6766C2.33382 57.7424 2.81034 57.9694 3.01458 58.03C3.05277 58.0421 3.09953 58.0576 3.11863 58.0664C3.16378 58.0871 3.41829 58.1511 3.72502 58.2205C3.85846 58.2518 3.99529 58.2846 4.02813 58.2933C4.10785 58.314 4.61019 58.4144 4.98968 58.4839C5.20784 58.5236 5.63248 58.5912 5.89912 58.6294C5.9996 58.6431 6.12786 58.6622 6.18498 58.6726C6.39456 58.709 7.26087 58.8096 7.8048 58.8615C8.00053 58.8806 8.24135 58.9031 8.34177 58.9134C8.50465 58.9307 8.67093 58.9446 9.46781 59.0017C9.58733 59.0105 9.85944 59.026 10.0742 59.0365C10.289 59.0469 10.5887 59.0624 10.7413 59.0712C11.9747 59.1421 15.5019 59.1421 16.718 59.0712C16.8705 59.0608 17.1702 59.0469 17.3851 59.0365C17.754 59.0193 17.8892 59.0105 18.4677 58.9671C19.2091 58.9101 20.299 58.8042 20.668 58.7523C20.7736 58.7368 20.9555 58.7125 21.0751 58.6968C21.5168 58.6398 22.1232 58.5479 22.4696 58.4839C22.8491 58.4144 23.3514 58.314 23.4312 58.2933C23.464 58.2846 23.6008 58.2518 23.7343 58.2205C24.034 58.1529 24.2939 58.0871 24.3406 58.0664C24.3982 58.0457 24.4559 58.0254 24.5139 58.0057C24.6559 57.959 25.1272 57.7355 25.167 57.6973C25.1791 57.6851 25.2137 57.6593 25.2432 57.6418C25.3784 57.557 25.4406 57.5086 25.5638 57.3976C25.7024 57.271 25.8947 57.0633 25.9414 56.9922C25.9569 56.968 25.9985 56.9091 26.0331 56.8624C26.0695 56.8139 26.099 56.7705 26.099 56.7636C26.099 56.7565 26.1268 56.7081 26.1596 56.6561C26.1926 56.6042 26.2324 56.5279 26.2482 56.4863C26.2654 56.4465 26.2827 56.4032 26.2897 56.3946C26.3225 56.3513 26.4438 56.0064 26.4957 55.8107C26.5773 55.5076 26.7296 54.7921 26.7851 54.4541C26.799 54.3676 26.8145 54.2863 26.8197 54.2724C26.8354 54.2342 26.9307 53.6399 27.0171 53.0338C27.0362 52.9003 27.0553 52.7669 27.0605 52.7392C27.0745 52.6594 27.1367 52.1277 27.1646 51.847C27.1782 51.7084 27.1973 51.5489 27.2077 51.4918C27.2183 51.4345 27.2371 51.2476 27.2511 51.076C27.265 50.9046 27.2841 50.6931 27.2926 50.6082C27.303 50.5217 27.3187 50.3242 27.329 50.1665C27.3393 50.0088 27.355 49.8149 27.3636 49.7334C27.3741 49.652 27.3931 49.3523 27.407 49.0665C27.4227 48.7805 27.44 48.4289 27.4503 48.2869C27.5283 47.0274 27.5283 43.722 27.4503 42.4228C27.4415 42.2753 27.4261 41.9862 27.4157 41.7817C27.4052 41.5773 27.3897 41.307 27.3809 41.1839C27.3706 41.0592 27.3481 40.7526 27.329 40.4998C27.3099 40.2468 27.2908 40.0093 27.2856 39.9714C27.2804 39.9331 27.265 39.7651 27.2511 39.5988C27.2371 39.4326 27.2216 39.2766 27.2164 39.2524C27.2113 39.2281 27.1922 39.0686 27.1731 38.8972C27.1282 38.4831 27.0726 38.0259 27.0605 37.9722C27.0553 37.948 27.0362 37.8093 27.0171 37.6671C26.9322 37.0194 26.7748 36.1167 26.6395 35.5017C26.6204 35.415 26.5894 35.2748 26.5703 35.1899C26.5218 34.9681 26.4645 34.7446 26.4456 34.7048C26.4369 34.6857 26.4213 34.639 26.4092 34.6008C26.371 34.4727 26.1787 34.0448 26.1302 33.9771C26.1232 33.9668 26.068 33.8854 26.0088 33.7954C25.8859 33.61 25.5707 33.2808 25.3818 33.1422C25.0077 32.8668 24.5918 32.6796 24.0549 32.548C23.9624 32.5253 23.8699 32.5022 23.7777 32.4785C23.7136 32.4597 23.5853 32.4318 23.3098 32.3747C23.2318 32.3584 23.1538 32.3416 23.076 32.3244C22.7416 32.2431 21.6536 32.0663 20.9452 31.9762C20.8029 31.9589 20.6628 31.9398 20.6333 31.9331C20.5812 31.9225 20.33 31.8966 19.8191 31.8463C19.6769 31.8324 19.4812 31.8117 19.386 31.803C19.2907 31.7926 19.1191 31.7771 19.0049 31.7665C18.8905 31.758 18.7034 31.7423 18.5891 31.7338C18.201 31.7007 17.1235 31.6385 16.5275 31.6124C15.3753 31.5621 13.248 31.5466 11.928 31.5796ZM4.295 43.2855C4.30536 43.294 4.35568 43.3098 4.40578 43.3218C4.49947 43.3443 4.63113 43.405 4.72971 43.4708C4.8077 43.5228 4.99146 43.7202 5.02764 43.7896C5.04518 43.8242 5.06405 43.8555 5.06923 43.8607C5.07463 43.8658 5.0901 43.9004 5.10402 43.9386C5.11616 43.9766 5.13163 44.0166 5.14043 44.0251C5.16286 44.0581 5.18897 44.2641 5.18897 44.4167C5.18897 44.5657 5.16625 44.7407 5.13686 44.8047C5.0434 45.0195 4.99825 45.0905 4.88052 45.2154C4.77129 45.3279 4.72637 45.3626 4.57741 45.4354C4.45605 45.496 4.36937 45.5272 4.30018 45.534C4.24468 45.5409 4.19613 45.5531 4.19096 45.5601C4.17888 45.581 3.80295 45.581 3.80295 45.5601C3.80295 45.5531 3.75959 45.5409 3.70408 45.534C3.65042 45.5272 3.58301 45.5115 3.55356 45.4994C3.516 45.4825 3.47787 45.4669 3.43922 45.4526C3.40621 45.4406 3.37498 45.4266 3.3698 45.4214C3.36462 45.4145 3.33857 45.399 3.30912 45.3851C3.2087 45.3349 3.00084 45.1044 2.94021 44.9779C2.9072 44.9103 2.8762 44.8445 2.86746 44.8308C2.80856 44.7129 2.79821 44.1758 2.85348 44.0511C2.86924 44.0181 2.89167 43.9629 2.90381 43.9298C2.91594 43.897 2.92986 43.8658 2.93504 43.8607C2.94021 43.8555 2.96092 43.8206 2.98002 43.7827C3.01303 43.7184 3.21905 43.4967 3.2485 43.4967C3.2554 43.4967 3.27116 43.4846 3.2833 43.4691C3.31608 43.4326 3.48414 43.3513 3.58641 43.3253C3.63489 43.3131 3.68861 43.2958 3.70771 43.2871C3.7268 43.2785 3.77351 43.2698 3.81152 43.2646C3.91373 43.2543 4.27251 43.2698 4.295 43.2855ZM23.1712 44.4929V45.3677H19.8104V44.1967L19.9975 44.1671C20.4116 44.1031 20.6697 44.0597 20.6853 44.0494C20.6956 44.0424 20.7805 44.0287 20.8758 44.0166C20.971 44.0044 21.0577 43.9887 21.0663 43.9817C21.0768 43.975 21.1582 43.9593 21.2483 43.9472C21.3384 43.9368 21.4561 43.9159 21.5083 43.9022C21.5601 43.8901 21.6693 43.871 21.7506 43.8607C21.8322 43.8501 21.9135 43.8346 21.9326 43.8276C21.9517 43.8191 22.0382 43.8034 22.1232 43.7912C22.2098 43.7809 22.3067 43.7654 22.3397 43.7548C22.3725 43.7463 22.4974 43.722 22.6169 43.7029C22.7365 43.6838 22.8924 43.658 22.9634 43.6458C23.0344 43.6319 23.1106 43.6216 23.1331 43.6198L23.1712 43.618V44.4929ZM8.82686 45.2655V46.3032H10.5592V47.8452H8.82525L8.83203 49.4511C8.83738 51.1818 8.83376 51.0969 8.92751 51.3098C8.99848 51.4746 9.19933 51.6426 9.37257 51.6841C9.40202 51.6911 9.43503 51.7049 9.44895 51.7154C9.48173 51.7413 10.1834 51.7413 10.2147 51.7136C10.2283 51.7032 10.2908 51.6893 10.3566 51.6824L10.4728 51.6702V53.1897L10.4259 53.2104C10.3827 53.2294 10.1834 53.2607 9.90977 53.2935C9.51998 53.3387 8.80954 53.3438 8.76796 53.3004C8.75761 53.2919 8.73 53.2849 8.70395 53.2849C8.63631 53.2849 8.35569 53.2328 8.33481 53.2173C8.32446 53.2104 8.27775 53.193 8.22921 53.1827C8.18251 53.1706 8.13575 53.1548 8.12522 53.1481C8.11665 53.1394 8.07691 53.1238 8.03872 53.1117C8.00053 53.0996 7.9659 53.0839 7.96073 53.0787C7.95555 53.0735 7.92432 53.0544 7.8913 53.0353C7.74751 52.9592 7.70438 52.9316 7.628 52.8673C7.58308 52.8309 7.54149 52.7999 7.53275 52.7999C7.51544 52.7981 7.38378 52.6543 7.27997 52.5227C7.20025 52.4204 7.08228 52.2247 7.04248 52.1241C7.02856 52.0913 7.01309 52.06 7.00791 52.0548C7.00096 52.0497 6.98364 51.996 6.96633 51.9335C6.95063 51.8713 6.92992 51.8055 6.92118 51.7864C6.91267 51.7673 6.89173 51.6893 6.87804 51.6132C6.86336 51.5408 6.84772 51.4686 6.83111 51.3966C6.81898 51.3447 6.81041 50.7347 6.80523 49.581L6.79833 47.8452H5.79513V46.3032H6.80011V44.5569L6.91779 44.5448C6.98186 44.538 7.04248 44.5259 7.05122 44.5189C7.06158 44.512 7.14653 44.4965 7.24178 44.4843C7.33702 44.4722 7.42376 44.4547 7.43233 44.448C7.44268 44.441 7.55184 44.4218 7.67493 44.4064C7.79962 44.3888 7.90885 44.37 7.91736 44.363C7.92771 44.356 7.985 44.3439 8.04723 44.3387C8.12865 44.329 8.20961 44.3157 8.28989 44.299C8.47526 44.2608 8.79919 44.2104 8.81472 44.2192C8.82168 44.2226 8.82686 44.6939 8.82686 45.2655ZM14.5699 46.1386C14.8123 46.1525 15.0862 46.1837 15.1069 46.1993C15.1172 46.2062 15.1588 46.2184 15.2022 46.2235C15.301 46.2392 15.5418 46.3102 15.6872 46.369C15.8085 46.4176 16.0788 46.5526 16.1203 46.5875C16.1343 46.5978 16.1653 46.6185 16.1896 46.629C16.2138 46.6412 16.2902 46.7016 16.3576 46.7607C16.4252 46.8213 16.4877 46.8733 16.4962 46.8766C16.5223 46.8888 16.8305 47.2631 16.8305 47.2837C16.8305 47.2889 16.8463 47.3168 16.8654 47.3426C16.9018 47.3947 17.0559 47.6944 17.0559 47.7135C17.0559 47.7203 17.0698 47.7585 17.0887 47.7983C17.106 47.8382 17.1269 47.8989 17.1339 47.9317C17.1408 47.9647 17.153 47.9993 17.1597 48.0096C17.1666 48.0184 17.1824 48.0737 17.1945 48.131C17.2049 48.188 17.2188 48.2472 17.224 48.2609C17.2309 48.2748 17.2464 48.3491 17.2604 48.4255C17.2811 48.5399 17.2862 48.9712 17.2931 50.8803L17.3001 53.1982H15.4101L15.4084 52.9938C15.4066 52.883 15.4014 52.7219 15.3944 52.637L15.3841 52.4811L15.3338 52.5503C15.2543 52.6561 14.9925 52.9054 14.8887 52.9747C14.6616 53.1238 14.6011 53.16 14.5387 53.1809C14.5005 53.1913 14.4504 53.2122 14.4261 53.2258C14.4 53.238 14.336 53.2589 14.2839 53.2692C14.232 53.2813 14.1801 53.2971 14.1714 53.3038C14.0831 53.3697 12.9916 53.368 12.9066 53.3022C12.8981 53.2953 12.8357 53.2798 12.768 53.2676C12.7022 53.2555 12.6242 53.2364 12.5948 53.2225C12.5672 53.2104 12.4926 53.1791 12.4321 53.1548C12.3625 53.1246 12.2943 53.091 12.2277 53.0544C12.1817 53.026 12.1348 52.9989 12.0873 52.9731C12.0145 52.9331 11.9902 52.9106 11.7928 52.7131C11.5901 52.5105 11.564 52.4829 11.564 52.4638C11.564 52.4568 11.5416 52.4186 11.5157 52.3788C11.4878 52.3391 11.4481 52.2663 11.4272 52.2193C11.4065 52.171 11.3787 52.1137 11.3665 52.0895C11.3528 52.0652 11.3337 52.003 11.3216 51.9509C11.3095 51.8989 11.294 51.847 11.287 51.8383C11.2679 51.814 11.2349 51.568 11.2349 51.4606C11.2349 51.4105 11.2264 51.3602 11.216 51.3499C11.1951 51.3289 11.2003 51.2597 11.254 50.8421C11.2643 50.7607 11.28 50.6862 11.287 50.6776C11.2939 50.6673 11.3094 50.6221 11.3198 50.5754C11.3423 50.4853 11.3893 50.3676 11.4377 50.279C11.4533 50.2496 11.474 50.2098 11.4845 50.189C11.4948 50.1665 11.5088 50.1492 11.5173 50.1492C11.5242 50.1492 11.5294 50.1389 11.5294 50.1267C11.5294 50.1076 11.72 49.8599 11.753 49.8374C11.7599 49.8322 11.7721 49.8149 11.7773 49.7976C11.7842 49.7785 11.8049 49.7612 11.824 49.756C11.8431 49.7509 11.8586 49.7403 11.8586 49.7333C11.8586 49.7161 12.1497 49.4873 12.2484 49.4302C12.3193 49.3869 12.4789 49.3056 12.711 49.1946C12.744 49.1773 13.0677 49.0734 13.21 49.0335C13.2619 49.018 13.3641 48.9971 13.4351 48.9868C13.5061 48.9746 13.5737 48.9607 13.5824 48.954C13.5928 48.947 13.6966 48.9313 13.8164 48.9209C13.9359 48.9106 14.0831 48.8933 14.1455 48.8845C14.3915 48.8482 15.2558 48.8551 15.3477 48.8933C15.379 48.907 15.3805 48.9002 15.3684 48.7528C15.3616 48.668 15.3495 48.5951 15.3426 48.59C15.3338 48.5848 15.3235 48.552 15.3165 48.5172C15.3044 48.4531 15.2385 48.313 15.1763 48.2175C15.1363 48.157 14.9682 47.9836 14.9491 47.9836C14.9424 47.9836 14.913 47.9663 14.8833 47.9438C14.8071 47.8883 14.6843 47.8331 14.6097 47.8191C14.5733 47.8122 14.5438 47.8 14.5438 47.7931C14.5438 47.7169 13.4247 47.7048 13.0887 47.7793C13.0453 47.7879 12.9449 47.8069 12.8635 47.8209C12.7819 47.8346 12.7006 47.8537 12.6815 47.8625C12.6624 47.871 12.6002 47.8868 12.5429 47.8971C12.4858 47.9074 12.4234 47.9231 12.4043 47.9317C12.3852 47.9404 12.316 47.9595 12.2501 47.9751C12.1844 47.9906 12.1219 48.0078 12.1115 48.0166C12.1012 48.0236 12.0545 48.0409 12.0059 48.053C11.9592 48.0651 11.9107 48.0824 11.9019 48.0894C11.8916 48.0964 11.8448 48.1118 11.7979 48.124C11.7496 48.1344 11.6819 48.1586 11.6474 48.1759C11.611 48.195 11.578 48.2089 11.5728 48.2089C11.5676 48.2089 11.564 47.8467 11.564 47.4051C11.564 46.7796 11.5694 46.5978 11.5867 46.5839C11.5988 46.5735 11.6474 46.5563 11.6941 46.5441C11.7426 46.5338 11.7894 46.5181 11.7979 46.5111C11.8085 46.5041 11.8655 46.4835 11.928 46.4677C11.9902 46.4504 12.0491 46.4315 12.0579 46.4246C12.0682 46.4158 12.1219 46.4019 12.1774 46.39C12.2347 46.3779 12.2936 46.3621 12.3073 46.3536C12.323 46.3467 12.3939 46.3275 12.465 46.312C12.5202 46.3013 12.5751 46.2891 12.6296 46.2756C12.6485 46.2702 12.7456 46.2548 12.846 46.2408C12.9467 46.2271 13.0523 46.208 13.0799 46.1993C13.1805 46.1682 14.0882 46.111 14.2927 46.1231C14.3497 46.1264 14.4746 46.1335 14.5699 46.1386V46.1386ZM5.01551 49.7509V53.1982H2.98876V46.3032H5.01551V49.7509ZM20.33 48.4514C20.33 50.5026 20.3388 50.8994 20.3804 50.9548C20.3889 50.9634 20.3995 50.998 20.4064 51.0311C20.4307 51.1609 20.5433 51.3499 20.6713 51.478C20.7389 51.5473 20.8151 51.6079 20.8394 51.6147C20.8654 51.6201 20.8845 51.6305 20.8845 51.6374C20.8845 51.6442 20.9452 51.6684 21.0195 51.6927C21.1306 51.7275 21.1894 51.7342 21.3626 51.7342C21.484 51.7342 21.5895 51.7257 21.6138 51.7154C21.6362 51.7033 21.69 51.6859 21.7333 51.6738C21.7767 51.6617 21.8547 51.6253 21.9066 51.5905C22.0036 51.5282 22.1838 51.362 22.1838 51.3341C22.1838 51.3256 22.2081 51.2874 22.2357 51.251C22.2651 51.2128 22.2878 51.1748 22.2878 51.1645C22.2878 51.1539 22.3034 51.1176 22.3206 51.0829C22.3397 51.0483 22.3604 50.9895 22.3674 50.9531C22.3726 50.9149 22.3846 50.8769 22.3934 50.8682C22.4368 50.8127 22.4438 50.4629 22.4438 48.4306V46.3032H24.4705V53.1983H23.5108C22.7608 53.1983 22.5458 53.1931 22.5355 53.1758C22.5285 53.1654 22.52 53.0007 22.5164 52.812C22.5129 52.6249 22.5043 52.4707 22.4975 52.4707C22.4906 52.4707 22.4696 52.4914 22.449 52.5174C22.3519 52.6492 22.1994 52.7981 21.9603 52.9956C21.9257 53.0232 21.8547 53.0614 21.6988 53.1376C21.6278 53.1721 21.5498 53.2121 21.5256 53.2243C21.5013 53.2364 21.4355 53.2555 21.3782 53.2676C21.3211 53.2798 21.2708 53.2952 21.2656 53.3022C21.2483 53.3281 20.9417 53.3541 20.6386 53.3541C20.3406 53.3541 20.098 53.3334 20.027 53.3038C20.0079 53.2953 19.9421 53.2744 19.8796 53.2589C19.8174 53.2433 19.7601 53.2225 19.7498 53.2155C19.7413 53.2086 19.6997 53.1912 19.6597 53.1791C19.6181 53.1688 19.5853 53.1533 19.5853 53.1463C19.5853 53.1394 19.5541 53.1239 19.5159 53.1117C19.4779 53.0996 19.4467 53.0839 19.4467 53.0769C19.4467 53.0702 19.4276 53.0562 19.4051 53.0458C19.2562 52.9783 18.9183 52.6612 18.7763 52.4568C18.6895 52.3321 18.5561 52.0825 18.5285 51.9908C18.5181 51.9544 18.4972 51.9008 18.4851 51.8729C18.473 51.8435 18.4523 51.7812 18.4417 51.7343C18.4314 51.686 18.4159 51.6356 18.4071 51.6184C18.3986 51.6026 18.3828 51.5213 18.3725 51.4364C18.3622 51.3532 18.3431 51.2683 18.3327 51.2492C18.317 51.2233 18.3101 50.6048 18.3067 48.758L18.3015 46.3032H20.3301L20.33 48.4514Z" fill="#FF6200"/>
<path d="M4.29521 43.2855C4.30557 43.294 4.35589 43.3097 4.40599 43.3218C4.49968 43.3443 4.63134 43.405 4.72992 43.4708C4.80791 43.5227 4.99167 43.7202 5.02785 43.7896C5.04539 43.8242 5.06426 43.8554 5.06944 43.8606C5.07484 43.8658 5.09031 43.9004 5.10423 43.9386C5.11637 43.9765 5.13184 44.0165 5.14064 44.0251C5.16307 44.0581 5.18918 44.2641 5.18918 44.4167C5.18918 44.5656 5.16647 44.7406 5.13707 44.8047C5.04361 45.0194 4.99846 45.0904 4.88073 45.2153C4.7715 45.3279 4.72658 45.3625 4.57762 45.4353C4.45626 45.496 4.36958 45.5272 4.30039 45.5339C4.24489 45.5409 4.19634 45.553 4.19117 45.56C4.17909 45.5809 3.80316 45.5809 3.80316 45.56C3.80316 45.553 3.7598 45.5409 3.70429 45.5339C3.65063 45.5272 3.58322 45.5115 3.55377 45.4994C3.51621 45.4825 3.47808 45.4669 3.43943 45.4526C3.40642 45.4405 3.37519 45.4265 3.37001 45.4214C3.36484 45.4145 3.33878 45.3989 3.30933 45.385C3.20891 45.3349 3.00105 45.1043 2.94043 44.9779C2.90741 44.9103 2.87641 44.8444 2.86767 44.8307C2.80877 44.7128 2.79842 44.1758 2.85369 44.0511C2.86945 44.0181 2.89188 43.9628 2.90402 43.9298C2.91615 43.897 2.93007 43.8657 2.93525 43.8606C2.94043 43.8554 2.96113 43.8206 2.98023 43.7826C3.01324 43.7184 3.21926 43.4967 3.24871 43.4967C3.25561 43.4967 3.27137 43.4845 3.28351 43.469C3.31629 43.4326 3.48435 43.3513 3.58662 43.3253C3.6351 43.3131 3.68882 43.2958 3.70792 43.287C3.72701 43.2785 3.77372 43.2698 3.81173 43.2646C3.91394 43.2542 4.27272 43.2698 4.29521 43.2855ZM23.1714 44.4928V45.3677H19.8106V44.1967L19.9978 44.1671C20.4118 44.103 20.6699 44.0597 20.6855 44.0493C20.6958 44.0424 20.7807 44.0286 20.876 44.0165C20.9712 44.0044 21.0579 43.9886 21.0665 43.9817C21.077 43.975 21.1584 43.9593 21.2485 43.9471C21.3386 43.9368 21.4563 43.9159 21.5085 43.9021C21.5604 43.8901 21.6695 43.8709 21.7508 43.8606C21.8324 43.85 21.9137 43.8346 21.9328 43.8275C21.9519 43.819 22.0384 43.8033 22.1234 43.7912C22.2101 43.7808 22.3069 43.7653 22.3399 43.7548C22.3727 43.7462 22.4976 43.722 22.6172 43.7029C22.7367 43.6838 22.8927 43.658 22.9636 43.6458C23.0346 43.6319 23.1108 43.6215 23.1333 43.6197L23.1714 43.618V44.4928ZM8.82707 45.2654V46.3032H10.5595V47.8452H8.82546L8.83225 49.4511C8.8376 51.1818 8.83397 51.0968 8.92772 51.3098C8.9987 51.4745 9.19954 51.6425 9.37278 51.6841C9.40223 51.6911 9.43524 51.7048 9.44916 51.7153C9.48195 51.7412 10.1836 51.7412 10.2149 51.7136C10.2286 51.7032 10.291 51.6893 10.3568 51.6823L10.473 51.6702V53.1896L10.4261 53.2104C10.3829 53.2294 10.1836 53.2606 9.90998 53.2935C9.52019 53.3386 8.80976 53.3438 8.76817 53.3004C8.75782 53.2919 8.73021 53.2849 8.70416 53.2849C8.63652 53.2849 8.3559 53.2328 8.33502 53.2173C8.32467 53.2104 8.27796 53.193 8.22942 53.1827C8.18272 53.1706 8.13596 53.1548 8.12543 53.1481C8.11686 53.1393 8.07712 53.1238 8.03893 53.1117C8.00074 53.0996 7.96611 53.0838 7.96094 53.0786C7.95576 53.0735 7.92453 53.0544 7.89152 53.0353C7.74773 52.9591 7.70459 52.9315 7.62821 52.8672C7.58329 52.8309 7.5417 52.7999 7.53296 52.7999C7.51565 52.798 7.38399 52.6542 7.28018 52.5226C7.20046 52.4204 7.08249 52.2247 7.04269 52.124C7.02877 52.0913 7.0133 52.06 7.00813 52.0548C7.00117 52.0496 6.98386 51.996 6.96654 51.9335C6.95084 51.8713 6.93014 51.8054 6.92139 51.7863C6.91288 51.7672 6.89194 51.6893 6.87826 51.6131C6.86358 51.5407 6.84793 51.4685 6.83132 51.3965C6.81919 51.3447 6.81062 50.7346 6.80544 49.581L6.79854 47.8452H5.79534V46.3032H6.80032V44.5568L6.918 44.5448C6.98207 44.538 7.04269 44.5258 7.05144 44.5189C7.06179 44.5119 7.14674 44.4965 7.24199 44.4843C7.33723 44.4722 7.42397 44.4546 7.43254 44.4479C7.44289 44.441 7.55206 44.4218 7.67514 44.4063C7.79983 44.3888 7.90906 44.3699 7.91757 44.363C7.92792 44.356 7.98521 44.3439 8.04744 44.3387C8.12886 44.3289 8.20982 44.3157 8.2901 44.2989C8.47547 44.2608 8.7994 44.2104 8.81493 44.2192C8.82189 44.2226 8.82707 44.6939 8.82707 45.2654ZM14.5701 46.1385C14.8125 46.1525 15.0864 46.1837 15.1071 46.1992C15.1174 46.2061 15.159 46.2183 15.2024 46.2235C15.3012 46.2392 15.5421 46.3102 15.6874 46.369C15.8088 46.4176 16.079 46.5526 16.1206 46.5874C16.1345 46.5978 16.1655 46.6185 16.1898 46.629C16.214 46.6411 16.2905 46.7016 16.3578 46.7607C16.4254 46.8213 16.4879 46.8732 16.4964 46.8766C16.5225 46.8887 16.8308 47.263 16.8308 47.2837C16.8308 47.2889 16.8465 47.3168 16.8656 47.3426C16.902 47.3947 17.0561 47.6944 17.0561 47.7135C17.0561 47.7202 17.07 47.7584 17.0889 47.7982C17.1062 47.8382 17.1271 47.8989 17.1341 47.9317C17.141 47.9647 17.1532 47.9993 17.1599 48.0096C17.1668 48.0184 17.1826 48.0737 17.1947 48.1309C17.2051 48.188 17.219 48.2471 17.2242 48.2608C17.2311 48.2747 17.2466 48.3491 17.2606 48.4255C17.2813 48.5398 17.2864 48.9712 17.2934 50.8803L17.3003 53.1982H15.4103L15.4086 52.9937C15.4068 52.883 15.4016 52.7219 15.3946 52.6369L15.3843 52.4811L15.334 52.5502C15.2545 52.6561 14.9927 52.9054 14.8889 52.9747C14.6618 53.1238 14.6013 53.16 14.5389 53.1809C14.5007 53.1913 14.4506 53.2121 14.4263 53.2258C14.4003 53.238 14.3362 53.2588 14.2841 53.2692C14.2322 53.2813 14.1803 53.297 14.1716 53.3038C14.0833 53.3696 12.9918 53.368 12.9068 53.3022C12.8983 53.2952 12.8359 53.2798 12.7682 53.2676C12.7024 53.2555 12.6244 53.2364 12.5951 53.2224C12.5674 53.2104 12.4928 53.1791 12.4323 53.1548C12.3627 53.1245 12.2945 53.091 12.2279 53.0544C12.1819 53.0259 12.1351 52.9988 12.0875 52.973C12.0147 52.9331 11.9904 52.9106 11.793 52.7131C11.5903 52.5104 11.5643 52.4828 11.5643 52.4637C11.5643 52.4568 11.5418 52.4186 11.5159 52.3788C11.488 52.339 11.4483 52.2662 11.4274 52.2193C11.4067 52.171 11.3789 52.1137 11.3667 52.0894C11.3531 52.0652 11.334 52.0029 11.3218 51.9508C11.3097 51.8989 11.2942 51.847 11.2872 51.8383C11.2681 51.814 11.2351 51.5679 11.2351 51.4605C11.2351 51.4105 11.2266 51.3601 11.2162 51.3498C11.1953 51.3289 11.2005 51.2597 11.2542 50.842C11.2645 50.7607 11.2802 50.6862 11.2872 50.6776C11.2942 50.6672 11.3096 50.6221 11.32 50.5754C11.3425 50.4852 11.3895 50.3675 11.4379 50.279C11.4535 50.2496 11.4742 50.2098 11.4847 50.1889C11.4951 50.1665 11.509 50.1492 11.5175 50.1492C11.5245 50.1492 11.5296 50.1388 11.5296 50.1267C11.5296 50.1076 11.7202 49.8598 11.7532 49.8373C11.7601 49.8322 11.7723 49.8149 11.7775 49.7975C11.7844 49.7784 11.8051 49.7612 11.8242 49.756C11.8433 49.7508 11.8588 49.7402 11.8588 49.7333C11.8588 49.716 12.1499 49.4873 12.2486 49.4302C12.3196 49.3869 12.4791 49.3055 12.7112 49.1945C12.7442 49.1773 13.0679 49.0734 13.2102 49.0335C13.2621 49.018 13.3643 48.997 13.4353 48.9867C13.5063 48.9746 13.5739 48.9607 13.5827 48.9539C13.593 48.9469 13.6968 48.9312 13.8166 48.9209C13.9361 48.9105 14.0833 48.8933 14.1457 48.8845C14.3917 48.8481 15.256 48.8551 15.3479 48.8933C15.3792 48.907 15.3807 48.9002 15.3686 48.7528C15.3619 48.6679 15.3497 48.5951 15.3428 48.5899C15.334 48.5847 15.3237 48.552 15.3167 48.5172C15.3046 48.4531 15.2387 48.3129 15.1765 48.2175C15.1365 48.157 14.9684 47.9835 14.9494 47.9835C14.9426 47.9835 14.9132 47.9663 14.8836 47.9438C14.8073 47.8883 14.6845 47.833 14.6099 47.8191C14.5735 47.8121 14.544 47.8 14.544 47.793C14.544 47.7169 13.425 47.7048 13.0889 47.7793C13.0455 47.7879 12.9451 47.8069 12.8637 47.8209C12.7822 47.8346 12.7008 47.8537 12.6817 47.8625C12.6626 47.871 12.6004 47.8867 12.5431 47.897C12.4861 47.9074 12.4236 47.9231 12.4045 47.9317C12.3854 47.9404 12.3162 47.9595 12.2504 47.975C12.1846 47.9906 12.1221 48.0078 12.1117 48.0165C12.1014 48.0236 12.0547 48.0408 12.0061 48.053C11.9594 48.0651 11.9109 48.0824 11.9022 48.0894C11.8918 48.0963 11.845 48.1118 11.7981 48.124C11.7498 48.1343 11.6822 48.1586 11.6476 48.1759C11.6112 48.195 11.5782 48.2089 11.573 48.2089C11.5678 48.2089 11.5643 47.8467 11.5643 47.405C11.5643 46.7796 11.5696 46.5977 11.5869 46.5838C11.5991 46.5735 11.6476 46.5562 11.6943 46.5441C11.7428 46.5337 11.7896 46.518 11.7981 46.5111C11.8087 46.5041 11.8658 46.4835 11.9282 46.4677C11.9904 46.4504 12.0493 46.4315 12.0581 46.4246C12.0684 46.4158 12.1221 46.4018 12.1776 46.3899C12.2349 46.3779 12.2938 46.3621 12.3075 46.3535C12.3232 46.3466 12.3942 46.3275 12.4652 46.312C12.5204 46.3012 12.5753 46.2891 12.6299 46.2756C12.6487 46.2702 12.7458 46.2547 12.8462 46.2407C12.9469 46.2271 13.0525 46.208 13.0801 46.1992C13.1807 46.1682 14.0884 46.1109 14.2929 46.1231C14.3499 46.1264 14.4748 46.1334 14.5701 46.1385ZM5.01572 49.7508V53.1982H2.98897V46.3032H5.01572V49.7508ZM20.3303 48.4513C20.3303 50.5026 20.339 50.8994 20.3806 50.9548C20.3891 50.9634 20.3997 50.9979 20.4066 51.031C20.4309 51.1608 20.5435 51.3498 20.6715 51.4779C20.7391 51.5473 20.8153 51.6079 20.8396 51.6147C20.8656 51.6201 20.8847 51.6304 20.8847 51.6374C20.8847 51.6441 20.9454 51.6684 21.0198 51.6926C21.1308 51.7275 21.1896 51.7342 21.3628 51.7342C21.4842 51.7342 21.5897 51.7257 21.614 51.7153C21.6364 51.7033 21.6902 51.6859 21.7335 51.6738C21.7769 51.6617 21.8549 51.6253 21.9068 51.5904C22.0038 51.5282 22.184 51.362 22.184 51.3341C22.184 51.3256 22.2083 51.2874 22.2359 51.251C22.2653 51.2128 22.288 51.1748 22.288 51.1645C22.288 51.1539 22.3036 51.1175 22.3208 51.0829C22.3399 51.0483 22.3606 50.9894 22.3676 50.953C22.3728 50.9148 22.3848 50.8769 22.3936 50.8681C22.437 50.8126 22.444 50.4628 22.444 48.4306V46.3032H24.4707V53.1982H23.511C22.761 53.1982 22.546 53.193 22.5357 53.1757C22.5287 53.1654 22.5202 53.0007 22.5166 52.8119C22.5132 52.6248 22.5045 52.4707 22.4977 52.4707C22.4908 52.4707 22.4699 52.4914 22.4492 52.5174C22.3521 52.6491 22.1996 52.7981 21.9605 52.9955C21.9259 53.0231 21.8549 53.0613 21.699 53.1375C21.628 53.1721 21.5501 53.2121 21.5258 53.2242C21.5015 53.2364 21.4357 53.2554 21.3784 53.2676C21.3213 53.2797 21.271 53.2952 21.2658 53.3022C21.2486 53.3281 20.9419 53.3541 20.6388 53.3541C20.3408 53.3541 20.0982 53.3334 20.0272 53.3038C20.0081 53.2952 19.9423 53.2744 19.8799 53.2588C19.8176 53.2433 19.7603 53.2224 19.75 53.2155C19.7415 53.2085 19.6999 53.1912 19.6599 53.1791C19.6183 53.1687 19.5855 53.1532 19.5855 53.1463C19.5855 53.1393 19.5543 53.1239 19.5161 53.1117C19.4782 53.0996 19.4469 53.0838 19.4469 53.0769C19.4469 53.0701 19.4278 53.0562 19.4053 53.0458C19.2564 52.9782 18.9185 52.6612 18.7765 52.4568C18.6897 52.3321 18.5563 52.0825 18.5287 51.9908C18.5183 51.9544 18.4975 51.9007 18.4853 51.8729C18.4732 51.8434 18.4525 51.7812 18.442 51.7343C18.4316 51.686 18.4161 51.6356 18.4073 51.6183C18.3988 51.6026 18.3831 51.5212 18.3728 51.4363C18.3624 51.3532 18.3433 51.2683 18.333 51.2492C18.3173 51.2233 18.3103 50.6048 18.3069 48.758L18.3017 46.3032H20.3303L20.3303 48.4513Z" fill="white"/>
<path d="M14.3445 50.1337C14.2598 50.1422 14.1731 50.1561 14.154 50.1647C14.1349 50.1752 14.0726 50.1907 14.0154 50.2028C13.9601 50.2132 13.8855 50.2341 13.8509 50.2496C13.5909 50.3622 13.4645 50.4368 13.378 50.5268C13.2948 50.6136 13.2115 50.7747 13.1978 50.8751C13.1941 50.9097 13.182 50.9548 13.1717 50.9737C13.1526 51.0137 13.1596 51.1366 13.1908 51.2977C13.2254 51.4727 13.3641 51.6859 13.4869 51.75C13.7053 51.8625 13.7469 51.8798 13.8682 51.8989C14.0863 51.9317 14.5022 51.9129 14.5923 51.8643C14.6078 51.8556 14.6721 51.8261 14.7343 51.7985C14.7968 51.7691 14.8781 51.7221 14.9163 51.6926C14.9545 51.6632 14.9976 51.6286 15.0133 51.6165C15.112 51.5421 15.294 51.2406 15.3182 51.1159C15.3234 51.0847 15.3373 51.0483 15.3477 51.0344C15.3597 51.0188 15.3684 50.8593 15.3719 50.5735L15.3788 50.137L15.2852 50.1267C15.1587 50.111 14.5352 50.1163 14.3445 50.1337Z" fill="#FF6200"/>
</g>
<g clip-path="url(#clip5_3278_8008)">
<rect x="31.562" y="31.5622" width="27.5622" height="27.5622" fill="#EC121F"/>
<path d="M50.1446 40.0845H45.3425C42.6038 40.0845 40.3484 42.1537 40.0541 44.814H40.0531C39.6315 44.0518 39.3916 43.1751 39.3916 42.2424C39.3916 39.3038 41.7738 36.9214 44.7125 36.9214H52.9992L50.1446 40.0845Z" fill="#F5F5F5"/>
<path d="M40.5416 50.7261H45.3437C48.0824 50.7261 50.3379 48.6571 50.6322 45.9967H50.6331C51.0547 46.7589 51.2946 47.6355 51.2946 48.5682C51.2946 51.507 48.9125 53.8892 45.9738 53.8892H37.687L40.5416 50.7261Z" fill="#F5F5F5"/>
<path d="M49.6167 45.4062C49.6167 47.7666 47.7031 49.6802 45.3427 49.6802C42.9824 49.6802 41.0688 47.7666 41.0688 45.4062C41.0688 43.0458 42.9824 41.1323 45.3427 41.1323C47.7031 41.1323 49.6167 43.0458 49.6167 45.4062Z" fill="#F5F5F5"/>
</g>
<rect x="63.1245" y="31.5622" width="27.5622" height="27.5622" rx="3" fill="#012B14"/>
<path d="M77.0703 51.2089L77.6563 52.3903C77.6832 52.4446 77.7352 52.4822 77.7954 52.4908L79.1058 52.6803C79.1754 52.6904 79.2332 52.7389 79.255 52.8054C79.2767 52.872 79.2586 52.945 79.2082 52.9938L78.2606 53.9134C78.2171 53.9557 78.1972 54.0165 78.2076 54.0761L78.4314 55.3745C78.4433 55.4435 78.4148 55.5132 78.3579 55.5543C78.301 55.5955 78.2256 55.6009 78.1633 55.5684L76.9912 54.9553C76.9373 54.9272 76.8731 54.9272 76.8192 54.9553L75.6471 55.5684C75.5849 55.6009 75.5094 55.5955 75.4525 55.5543C75.3956 55.5132 75.3671 55.4435 75.379 55.3745L75.603 54.0761C75.6132 54.0165 75.5933 53.9557 75.5498 53.9134L74.6022 52.9938C74.5518 52.945 74.5337 52.872 74.5554 52.8054C74.5772 52.7389 74.635 52.6904 74.7046 52.6803L76.015 52.4908C76.0752 52.4822 76.1272 52.4446 76.1541 52.3903L76.7401 51.2089C76.7715 51.1469 76.8354 51.1077 76.9052 51.1077C76.975 51.1077 77.0389 51.1469 77.0703 51.2089Z" fill="#C4B264"/>
<path d="M81.2108 42.6455V43.6459C81.2108 45.441 80.9391 45.6423 77.3682 45.6423L77.2941 45.6423C77.2887 45.6423 77.2835 45.6423 77.2784 45.6423L77.238 45.6423C77.2261 45.6424 77.2156 45.6424 77.2064 45.6424L77.1897 45.6425C77.0964 45.6428 77.1799 45.6435 77.1004 45.6438L77.086 45.6439C77.0834 45.6439 77.0806 45.6439 77.0777 45.6439L77.0584 45.6439C77.0549 45.6439 77.0513 45.6439 77.0474 45.6439L76.9601 45.644C74.3212 45.644 73.2428 45.8129 73.2428 47.9234H72.6011C72.6011 44.2457 73.4447 43.889 76.9601 43.8652C77.1636 43.8637 77.2127 43.863 77.2561 43.8626L77.265 43.8625C77.274 43.8624 77.2831 43.8623 77.2938 43.8623L77.305 43.8623C77.3069 43.8623 77.309 43.8622 77.3111 43.8622L77.3316 43.8622C77.3341 43.8622 77.3367 43.8622 77.3393 43.8622L77.3977 43.8621C77.4016 43.8621 77.4056 43.8621 77.4097 43.8621L77.6493 43.8621C79.6288 43.8621 80.8197 43.7977 80.8197 42.6455H81.2108ZM81.2108 38.8714V39.8717C81.2108 41.6669 80.9391 41.8682 77.3682 41.8682L77.1568 41.8682C77.1556 41.8682 77.1545 41.8682 77.1534 41.8682L77.1431 41.8683C77.1427 41.8683 77.1424 41.8683 77.1421 41.8683L77.1408 41.8683C77.1406 41.8683 77.1404 41.8683 77.1404 41.8683C77.1399 41.8684 77.1398 41.8684 77.1398 41.8684C77.138 41.8687 77.1272 41.8691 76.9601 41.8699C74.26 41.8895 73.2428 42.0951 73.2428 44.1493H72.6011C72.6011 40.4711 73.3266 40.1226 76.9601 40.0907C77.1566 40.089 77.2091 40.0882 77.2516 40.0879L77.2605 40.0878L77.2695 40.0878C77.274 40.0878 77.2787 40.0877 77.2836 40.0877L77.3111 40.0877C77.3131 40.0877 77.3153 40.0877 77.3175 40.0877L77.3757 40.0877C77.3792 40.0877 77.3827 40.0877 77.3864 40.0877L77.5176 40.0877C77.5238 40.0877 77.5302 40.0877 77.5368 40.0877L77.6493 40.0877C79.6288 40.0874 80.8197 40.0231 80.8197 38.8714H81.2108ZM81.2108 35.0973V36.0976C81.2108 37.8927 80.9391 38.0942 77.3682 38.0942L77.2639 38.0942C77.2593 38.0942 77.2548 38.0942 77.2505 38.0942L77.1534 38.0943C77.1524 38.0943 77.1514 38.0943 77.1505 38.0943L77.1431 38.0943C77.1427 38.0943 77.1424 38.0943 77.1421 38.0944L77.1404 38.0944L77.1401 38.0944C77.1387 38.0947 77.1392 38.0951 76.9601 38.096C74.26 38.1155 73.2428 38.3212 73.2428 40.3751H72.6011C72.6011 36.6972 73.3266 36.3486 76.9601 36.3167C77.1846 36.3148 77.2212 36.314 77.2695 36.3138L77.2788 36.3137C77.2803 36.3137 77.2819 36.3137 77.2836 36.3137L77.4097 36.3137C77.4139 36.3137 77.4182 36.3137 77.4226 36.3137L77.5368 36.3138C77.5433 36.3138 77.5501 36.3138 77.557 36.3138L77.6493 36.3138C79.6288 36.3138 80.8197 36.2494 80.8197 35.0973H81.2108Z" fill="#C4B264"/>
<g clip-path="url(#clip6_3278_8008)">
<rect x="93.3745" y="30.6145" width="30.6247" height="30.6247" fill="url(#paint0_linear_3278_8008)"/>
<rect x="101.139" y="42.1777" width="14.6574" height="2.15138" fill="white"/>
<rect x="101.139" y="37.9974" width="14.6574" height="2.15138" fill="white"/>
<rect x="101.139" y="46.358" width="14.6574" height="2.15138" fill="white"/>
<rect x="101.139" y="50.5383" width="14.6574" height="2.15138" fill="white"/>
</g>
<rect x="126.249" y="31.5622" width="27.5622" height="27.5622" rx="3" fill="#582982"/>
<path fill-rule="evenodd" clip-rule="evenodd" d="M132.506 46.1954C132.429 46.1954 132.355 46.204 132.285 46.2205C132.214 46.2379 132.154 46.2534 132.104 46.2666C132.041 46.2931 131.981 46.3206 131.927 46.3475V49.1102C131.928 49.1272 131.914 49.1409 131.897 49.1418H131.072C131.055 49.1413 131.041 49.1272 131.042 49.1102V45.7283C131.176 45.6635 131.315 45.6082 131.457 45.5629C131.604 45.5172 131.754 45.4802 131.906 45.4519C132.07 45.4208 132.247 45.4053 132.438 45.4053C132.606 45.4053 132.76 45.4194 132.898 45.4482C133.037 45.477 133.158 45.5108 133.263 45.5488C133.376 45.589 133.479 45.6324 133.574 45.6804C133.587 45.6881 133.593 45.7041 133.589 45.7188L133.37 46.4156C133.364 46.4353 133.342 46.4435 133.326 46.433C133.262 46.3923 133.195 46.3562 133.126 46.3247C133.037 46.2876 132.944 46.2575 132.85 46.2342C132.738 46.2072 132.622 46.194 132.506 46.1954Z" fill="white"/>
<path fill-rule="evenodd" clip-rule="evenodd" d="M134.064 45.5488H134.89C134.906 45.5488 134.92 45.563 134.92 45.5804V49.1103C134.92 49.1267 134.907 49.1409 134.89 49.1414C134.89 49.1418 134.89 49.1418 134.89 49.1418H134.077C134.053 49.1409 134.034 49.1208 134.034 49.0961C134.034 49.0961 134.034 49.0961 134.034 49.0957V45.5804C134.034 45.563 134.047 45.5488 134.064 45.5488ZM133.932 44.507C133.932 44.363 133.984 44.2374 134.088 44.1295C134.193 44.0217 134.322 43.9678 134.477 43.9678C134.631 43.9678 134.761 44.0217 134.865 44.1295C134.97 44.2374 135.022 44.3635 135.022 44.507C135.022 44.6505 134.97 44.7766 134.865 44.8844C134.764 44.9904 134.623 45.0489 134.477 45.0457C134.322 45.0457 134.193 44.9922 134.088 44.8844C133.984 44.7766 133.932 44.6505 133.932 44.507Z" fill="white"/>
<path fill-rule="evenodd" clip-rule="evenodd" d="M137.219 46.1775C137.141 46.1775 137.064 46.1839 136.987 46.1953C136.91 46.2072 136.841 46.2182 136.783 46.2282C136.71 46.247 136.639 46.2661 136.572 46.2853V48.3695C136.639 48.3882 136.71 48.4047 136.782 48.4193C136.846 48.4389 136.916 48.4531 136.99 48.4622C137.066 48.4728 137.141 48.4773 137.219 48.4773C137.372 48.4792 137.523 48.4508 137.665 48.3942C137.799 48.3393 137.914 48.2616 138.009 48.1607C138.105 48.0601 138.178 47.939 138.23 47.7978C138.284 47.6466 138.311 47.4876 138.309 47.3272C138.309 47.1545 138.282 46.9982 138.231 46.8565C138.182 46.7217 138.107 46.5984 138.009 46.4933C137.912 46.3923 137.795 46.3127 137.665 46.2602C137.523 46.2035 137.372 46.1757 137.219 46.1775ZM136.541 50.4888H135.716C135.699 50.4884 135.685 50.4742 135.686 50.4573V45.732C135.686 45.7192 135.693 45.7073 135.705 45.7023C135.852 45.6419 136.003 45.5899 136.156 45.5451C136.321 45.4998 136.488 45.4624 136.657 45.4336C136.836 45.4025 137.023 45.387 137.219 45.387C137.519 45.387 137.791 45.4372 138.036 45.5378C138.281 45.6388 138.493 45.7763 138.671 45.9509C138.847 46.1272 138.988 46.3374 139.082 46.5691C139.18 46.8063 139.229 47.0594 139.229 47.3272C139.23 47.5872 139.181 47.8449 139.082 48.0853C138.988 48.317 138.848 48.5271 138.671 48.7035C138.488 48.8813 138.273 49.022 138.036 49.1171C137.791 49.2176 137.519 49.2678 137.219 49.2678C137.141 49.2678 137.064 49.2615 136.987 49.2496C136.91 49.2377 136.841 49.2267 136.783 49.2176C136.712 49.1989 136.642 49.1797 136.572 49.16V50.4578C136.572 50.4747 136.558 50.4888 136.541 50.4893" fill="white"/>
<path fill-rule="evenodd" clip-rule="evenodd" d="M139.9 49.1423C139.884 49.1419 139.87 49.1277 139.871 49.1108V44.8667L139.868 44.1442C139.868 44.1264 139.882 44.1118 139.899 44.1118H140.726C140.743 44.1118 140.757 44.1259 140.757 44.1442V49.1103C140.757 49.1277 140.743 49.1414 140.726 49.1419" fill="white"/>
<path fill-rule="evenodd" clip-rule="evenodd" d="M143.979 47.0041C143.942 46.7692 143.847 46.5728 143.693 46.4147C143.546 46.2597 143.341 46.1734 143.127 46.1775C142.905 46.1775 142.715 46.2565 142.558 46.4147C142.402 46.5728 142.305 46.7692 142.268 47.0041H143.979ZM144.478 47.7585H142.268C142.342 47.9564 142.467 48.1309 142.63 48.2649C142.798 48.4065 143.043 48.4769 143.365 48.4769C143.489 48.4787 143.613 48.4641 143.734 48.4339C143.83 48.4101 143.923 48.3763 144.013 48.3334C144.092 48.2959 144.162 48.2548 144.224 48.21C144.237 48.2004 144.255 48.2027 144.264 48.216C144.266 48.2173 144.267 48.2187 144.267 48.2205L144.58 48.8114C144.587 48.8255 144.583 48.8429 144.57 48.8529C144.467 48.9306 144.355 48.9969 144.238 49.0517C144.106 49.1148 143.967 49.1655 143.825 49.203C143.653 49.2478 143.475 49.2697 143.298 49.2678C142.998 49.2678 142.726 49.2181 142.483 49.1202C142.25 49.0284 142.038 48.8904 141.86 48.714C141.685 48.5395 141.55 48.3302 141.461 48.0999C141.368 47.8627 141.321 47.605 141.321 47.3272C141.321 47.0402 141.365 46.7775 141.454 46.5403C141.537 46.3127 141.665 46.1039 141.829 45.9262C141.989 45.7539 142.185 45.6177 142.402 45.5268C142.621 45.4336 142.863 45.387 143.127 45.387C143.391 45.387 143.632 45.4336 143.853 45.5268C144.073 45.62 144.264 45.7535 144.425 45.9262C144.59 46.1039 144.717 46.3127 144.8 46.5403C144.887 46.7738 144.932 47.0311 144.933 47.313C144.933 47.3222 144.929 47.3308 144.923 47.3372L144.499 47.7499C144.493 47.7554 144.486 47.7585 144.478 47.7585Z" fill="white"/>
<path fill-rule="evenodd" clip-rule="evenodd" d="M148.891 48.8316C148.891 49.0454 148.848 49.257 148.762 49.453C148.673 49.6541 148.543 49.8341 148.38 49.9813C148.212 50.1348 148.009 50.2573 147.77 50.3482C147.532 50.4391 147.258 50.4844 146.949 50.4844C146.745 50.4844 146.561 50.4615 146.397 50.4163C146.255 50.3784 146.116 50.329 145.982 50.2687C145.853 50.2111 145.732 50.1389 145.62 50.053L145.947 49.4348C145.953 49.4211 145.97 49.4146 145.984 49.4215C145.985 49.422 145.986 49.4229 145.987 49.4234C146.063 49.469 146.147 49.512 146.241 49.5504C146.332 49.5888 146.436 49.6221 146.554 49.6514C146.672 49.6797 146.804 49.6943 146.949 49.6943C147.181 49.6943 147.366 49.6537 147.504 49.5719C147.644 49.4905 147.748 49.3991 147.821 49.2986C147.907 49.1835 147.969 49.0518 148.005 48.9033V48.8316C147.924 48.8458 147.842 48.8581 147.759 48.8681C147.683 48.8773 147.601 48.8855 147.515 48.8928C147.428 48.9001 147.341 48.9033 147.256 48.9033C146.965 48.9033 146.708 48.8626 146.486 48.7813C146.263 48.7 146.075 48.5871 145.92 48.4436C145.767 48.3015 145.647 48.1274 145.569 47.9332C145.488 47.7276 145.448 47.5078 145.45 47.2866V45.4145C145.45 45.3967 145.464 45.3821 145.48 45.3821H146.306C146.322 45.3821 146.336 45.3967 146.336 45.4145V47.2866C146.336 47.5215 146.417 47.718 146.578 47.8756C146.739 48.0337 146.965 48.1128 147.255 48.1128C147.351 48.1128 147.442 48.1069 147.531 48.095C147.62 48.0831 147.701 48.0703 147.774 48.0557C147.855 48.0411 147.933 48.0242 148.005 48.0054V45.4145C148.005 45.3967 148.019 45.3821 148.035 45.3821H148.861C148.877 45.3821 148.891 45.3967 148.891 45.4145V48.8316Z" fill="white"/>
<path d="M148.863 51.8727H131.042V53.2435H148.863V51.8727Z" fill="#D73941"/>
<path d="M148.862 51.8726H140.18V53.2435H148.862V51.8726Z" fill="#E7A457"/>
<path d="M148.863 51.8726H142.465V53.2435H148.863V51.8726Z" fill="#794887"/>
<path fill-rule="evenodd" clip-rule="evenodd" d="M132.19 41.8265C132.343 41.8288 132.495 41.8004 132.637 41.7433C132.767 41.6912 132.884 41.6117 132.981 41.5103C133.076 41.4098 133.15 41.2882 133.202 41.147C133.255 41.0063 133.281 40.8486 133.281 40.6764C133.282 40.516 133.256 40.3565 133.202 40.2057C133.154 40.0709 133.079 39.9475 132.981 39.8429C132.884 39.7415 132.767 39.6619 132.637 39.6094C132.495 39.5532 132.343 39.5249 132.19 39.5267C132.113 39.5267 132.035 39.5331 131.959 39.5449C131.881 39.5573 131.813 39.5678 131.754 39.5774C131.682 39.5966 131.612 39.6153 131.543 39.6345V41.7186C131.612 41.7374 131.682 41.7548 131.755 41.7689C131.818 41.7881 131.888 41.8023 131.962 41.8119C132.037 41.8219 132.113 41.8265 132.19 41.8265ZM131.543 38.8444C131.612 38.8252 131.682 38.806 131.755 38.7864C131.818 38.7723 131.888 38.7604 131.962 38.7508C132.037 38.7412 132.114 38.7361 132.191 38.7361C132.491 38.7361 132.763 38.7864 133.009 38.8874C133.245 38.982 133.46 39.1223 133.642 39.3005C133.819 39.4755 133.956 39.6811 134.054 39.9183C134.152 40.1559 134.201 40.4086 134.201 40.6764C134.203 40.9363 134.153 41.1941 134.054 41.4349C133.96 41.6666 133.82 41.8767 133.642 42.0527C133.46 42.2309 133.245 42.3712 133.009 42.4658C132.763 42.5668 132.491 42.617 132.191 42.617C131.995 42.617 131.806 42.5997 131.622 42.5668C131.455 42.5371 131.29 42.4987 131.128 42.4512C130.968 42.4096 130.811 42.357 130.658 42.2935V37.4745C130.658 37.4567 130.67 37.443 130.687 37.443H131.513C131.53 37.4434 131.543 37.4572 131.543 37.4736C131.543 37.474 131.543 37.474 131.543 37.4745V38.844L131.543 38.8444Z" fill="white"/>
<path fill-rule="evenodd" clip-rule="evenodd" d="M145.54 42.1806C145.548 42.1943 145.544 42.2113 145.533 42.2213C145.433 42.2985 145.326 42.3653 145.213 42.4201C145.083 42.4817 144.949 42.5325 144.811 42.5709C144.661 42.6143 144.488 42.6353 144.293 42.6353C143.993 42.6353 143.72 42.5855 143.475 42.4845C143.239 42.3899 143.023 42.2496 142.841 42.0719C142.663 41.8955 142.524 41.6853 142.429 41.4536C142.331 41.2133 142.281 40.9556 142.283 40.6956C142.281 40.4355 142.331 40.1778 142.429 39.9375C142.524 39.7058 142.663 39.4951 142.841 39.3192C143.023 39.1419 143.239 39.0012 143.475 38.9061C143.72 38.8056 143.993 38.7549 144.293 38.7549C144.463 38.7531 144.632 38.7736 144.797 38.8161C144.947 38.8568 145.077 38.9011 145.185 38.9491C145.299 39.0071 145.402 39.0684 145.496 39.1346C145.509 39.1442 145.513 39.1615 145.506 39.1762L145.194 39.7679C145.187 39.7821 145.17 39.788 145.157 39.7812C145.155 39.7803 145.154 39.7798 145.152 39.7789C145.089 39.7373 145.023 39.7003 144.954 39.6679C144.869 39.6317 144.781 39.6034 144.691 39.582C144.583 39.5564 144.472 39.5445 144.361 39.5458C144.197 39.5458 144.045 39.5769 143.905 39.6395C143.767 39.6994 143.643 39.7844 143.537 39.8904C143.432 39.996 143.349 40.1203 143.292 40.2573C143.232 40.3958 143.202 40.5447 143.203 40.6956C143.204 40.9971 143.324 41.2864 143.537 41.5002C143.641 41.6062 143.764 41.6894 143.905 41.752C144.049 41.8146 144.204 41.8461 144.361 41.8452C144.577 41.8475 144.789 41.7982 144.981 41.7017C145.056 41.6643 145.124 41.6231 145.186 41.5784C145.199 41.5688 145.217 41.5715 145.226 41.5843C145.227 41.5852 145.228 41.5871 145.229 41.5889L145.541 42.1806H145.54Z" fill="white"/>
<path fill-rule="evenodd" clip-rule="evenodd" d="M148.481 40.6955C148.481 40.5228 148.455 40.3665 148.403 40.2248C148.356 40.0914 148.284 39.9685 148.192 39.8615C148.105 39.7624 147.998 39.6829 147.878 39.6285C147.758 39.5732 147.626 39.5449 147.493 39.5458C147.357 39.5458 147.229 39.5732 147.108 39.6285C146.988 39.6834 146.882 39.7624 146.795 39.8615C146.706 39.9625 146.636 40.0836 146.584 40.2248C146.53 40.3756 146.503 40.5351 146.506 40.6955C146.506 40.8678 146.531 41.025 146.584 41.1662C146.631 41.2991 146.703 41.422 146.795 41.529C146.971 41.7309 147.226 41.8461 147.493 41.8452C147.629 41.8452 147.758 41.8173 147.878 41.7625C147.998 41.7081 148.105 41.6286 148.192 41.5294C148.28 41.4284 148.351 41.3073 148.403 41.1662C148.455 41.025 148.481 40.8678 148.481 40.6955ZM145.585 40.6955C145.584 40.4355 145.633 40.1778 145.732 39.9374C145.83 39.7003 145.964 39.4942 146.134 39.3191C146.307 39.1432 146.511 39.0029 146.737 38.9061C146.969 38.8056 147.221 38.7548 147.493 38.7548C148.006 38.7507 148.499 38.9541 148.86 39.3191C149.032 39.4969 149.167 39.7071 149.258 39.937C149.354 40.1782 149.403 40.436 149.401 40.6955C149.403 40.9551 149.354 41.2128 149.258 41.454C149.167 41.6839 149.032 41.8936 148.86 42.0718C148.687 42.2482 148.481 42.3885 148.253 42.4845C148.013 42.5864 147.755 42.6375 147.494 42.6357C146.982 42.6412 146.491 42.4374 146.134 42.0718C145.962 41.8936 145.825 41.6839 145.732 41.454C145.633 41.2132 145.584 40.9555 145.585 40.6955Z" fill="white"/>
<path fill-rule="evenodd" clip-rule="evenodd" d="M138.394 42.4254V39.1249C138.394 39.097 138.411 39.0723 138.435 39.0632C138.594 39.0061 138.755 38.9558 138.918 38.9129C139.086 38.8699 139.264 38.8334 139.452 38.8023C139.643 38.7708 139.835 38.7552 140.028 38.7548C140.318 38.7548 140.576 38.7959 140.801 38.8772C141.027 38.959 141.214 39.0714 141.367 39.2149C141.518 39.3575 141.637 39.532 141.714 39.7249C141.795 39.9305 141.835 40.1499 141.833 40.371V42.4254C141.834 42.4602 141.807 42.489 141.772 42.4899H141.009C140.974 42.489 140.947 42.4602 140.947 42.4254V40.371C140.947 40.1366 140.867 39.9401 140.706 39.7824C140.544 39.6243 140.319 39.5457 140.028 39.5457C139.933 39.5457 139.841 39.554 139.752 39.5704C139.67 39.5864 139.589 39.6024 139.506 39.6175C139.441 39.639 139.38 39.6605 139.32 39.6824C139.295 39.692 139.279 39.7162 139.279 39.7427V42.4259C139.28 42.4606 139.253 42.4894 139.218 42.4903H138.454C138.42 42.4894 138.393 42.4606 138.394 42.4259" fill="white"/>
<path fill-rule="evenodd" clip-rule="evenodd" d="M136.937 41.7124C136.864 41.7316 136.784 41.7485 136.698 41.7631C136.626 41.7768 136.543 41.7905 136.45 41.8029C136.352 41.8148 136.252 41.8211 136.153 41.8207C135.862 41.8207 135.659 41.7736 135.543 41.6804C135.428 41.5867 135.37 41.4784 135.37 41.3537C135.37 41.2289 135.428 41.1197 135.543 41.026C135.659 40.9328 135.862 40.8858 136.153 40.8858C136.258 40.8858 136.355 40.8894 136.446 40.8967C136.537 40.904 136.621 40.9127 136.698 40.9219C136.784 40.9319 136.864 40.9438 136.937 40.958V41.7124ZM137.823 40.3109C137.823 39.8229 137.682 39.4372 137.4 39.1544C137.118 38.872 136.703 38.7303 136.153 38.7303C135.949 38.7303 135.768 38.7495 135.611 38.7883C135.47 38.8213 135.333 38.867 135.199 38.9245C135.088 38.9762 134.981 39.0378 134.881 39.1096C134.867 39.1188 134.865 39.1361 134.872 39.1512L135.185 39.7448C135.193 39.7603 135.211 39.7658 135.225 39.7575C135.305 39.7137 135.387 39.6753 135.472 39.6428C135.558 39.6141 135.659 39.5871 135.775 39.5602C135.899 39.5332 136.026 39.5199 136.153 39.5204C136.426 39.5204 136.624 39.5784 136.75 39.6936C136.874 39.8083 136.937 39.9664 136.937 40.1674C136.863 40.1524 136.788 40.1405 136.712 40.1314C136.628 40.1213 136.544 40.1126 136.46 40.1062C136.364 40.0998 136.262 40.0962 136.153 40.0962C135.854 40.0962 135.597 40.1281 135.383 40.1926C135.17 40.2574 134.994 40.3447 134.855 40.4549C134.721 40.559 134.616 40.6948 134.549 40.8501C134.481 41.0092 134.448 41.1805 134.45 41.3537C134.45 41.5301 134.483 41.6973 134.549 41.8522C134.614 42.0089 134.716 42.1415 134.855 42.2511C134.994 42.3622 135.17 42.449 135.383 42.5139C135.597 42.5787 135.854 42.6112 136.153 42.6112C136.376 42.6112 136.585 42.5989 136.78 42.5751C136.947 42.555 137.112 42.5285 137.276 42.497L137.823 41.9861V40.3109Z" fill="white"/>
<rect x="157.811" y="59.1244" width="59.1244" height="19" rx="3" transform="rotate(-90 157.811 59.1244)" fill="white"/>
<path d="M172.556 51.8697V51.1034C172.556 50.7902 172.302 50.5359 171.989 50.5359H165.66C165.348 50.5359 165.094 50.7902 165.094 51.1034V51.8697C165.094 52.1829 165.348 52.4371 165.66 52.4371H171.989C172.302 52.4371 172.556 52.1829 172.556 51.8697Z" fill="black"/>
<path d="M172.555 53.6079V53.6072C172.555 53.3974 172.385 53.2279 172.176 53.2279H165.471C165.262 53.2279 165.092 53.3974 165.092 53.6072V53.6079C165.092 53.8176 165.262 53.9871 165.471 53.9871H172.176C172.385 53.9871 172.555 53.8176 172.555 53.6079Z" fill="black"/>
<path d="M172.555 54.9415C172.555 54.851 172.481 54.777 172.39 54.777H165.257C165.166 54.777 165.092 54.851 165.092 54.9415C165.092 55.032 165.166 55.106 165.257 55.106H172.39C172.481 55.106 172.555 55.032 172.555 54.9415Z" fill="black"/>
<path d="M165.093 47.4473V48.8206C165.093 49.3312 165.507 49.7457 166.016 49.7457H171.631C172.141 49.7457 172.555 49.3312 172.555 48.8206V47.4473C172.555 46.9366 172.141 46.5222 171.631 46.5222H166.016C165.507 46.5222 165.093 46.9366 165.093 47.4473Z" fill="black"/>
<path d="M164.402 40.2363C163.837 40.2363 163.547 39.9167 163.547 39.3651C163.547 39.0024 163.576 38.7409 163.634 38.407H162.024C161.937 38.7991 161.879 39.2925 161.879 39.7422C161.879 41.2225 162.691 42.1519 164.271 42.1519H164.488C164.88 42.1519 165.097 42.3551 165.097 42.7473V43.2989H166.866V42.1519H172.562V40.2356H166.866V38.2762H165.097V40.2356H164.402V40.2363Z" fill="black"/>
<path d="M161.973 35.992C161.973 35.3527 162.477 34.8471 163.081 34.8471C163.686 34.8471 164.19 35.3527 164.19 35.992C164.19 36.6312 163.7 37.1218 163.081 37.1218C162.462 37.1218 161.973 36.6312 161.973 35.992Z" fill="black"/>
<path d="M165.097 35.0332V36.9351H172.562V35.0332H165.097Z" fill="black"/>
<path d="M164.938 29.5811C164.938 30.6599 165.45 31.4004 166.025 31.7725H165.097V33.6744H172.561V31.7725H168.709C167.57 31.7682 166.778 31.1311 166.778 30.1902C166.778 29.2493 167.357 28.6804 168.633 28.6804H172.561V26.7785H168.213C165.85 26.7785 164.938 28.0412 164.938 29.5804V29.5811Z" fill="black"/>
<path d="M169.866 22.9259H166.866V20.9665H165.097V22.9259H163.01V24.6238L164.55 24.7078C164.853 24.715 165.097 24.9197 165.097 25.2386V26.061H166.866V24.8414H170.026C171.837 24.8414 172.707 23.7525 172.707 22.2723C172.707 21.6768 172.649 21.2854 172.548 20.8207H170.751C170.838 21.2128 170.867 21.4592 170.867 21.9239C170.867 22.5042 170.606 22.9251 169.867 22.9251H169.866V22.9259Z" fill="black"/>
<path d="M164.938 16.1399C164.938 18.3895 166.604 20.1025 168.822 20.1025C171.039 20.1025 172.72 18.3895 172.72 16.1399C172.72 13.8904 171.054 12.148 168.822 12.148C166.59 12.148 164.938 13.8897 164.938 16.1399ZM170.88 16.1399C170.88 17.3301 169.967 18.1869 168.822 18.1869C167.676 18.1869 166.778 17.3308 166.778 16.1399C166.778 14.9491 167.691 14.0642 168.822 14.0642C169.953 14.0642 170.88 14.9498 170.88 16.1399Z" fill="black"/>
<path d="M170.906 7.45338C170.906 8.65787 169.993 9.51473 168.848 9.51473C167.702 9.51473 166.804 8.65859 166.804 7.45338C166.804 6.69851 167.151 6.16127 167.717 5.81292L166.717 4.17246C165.63 4.86915 164.963 6.01618 164.963 7.45267C164.963 9.76037 166.63 11.4296 168.848 11.4296C171.065 11.4296 172.746 9.76037 172.746 7.45267C172.746 6.01547 172.079 4.86915 170.993 4.17246L169.993 5.81292C170.558 6.16127 170.906 6.69851 170.906 7.45338Z" fill="black"/>
<defs>
<linearGradient id="paint0_linear_3278_8008" x1="123.999" y1="31.808" x2="93.3745" y2="60.0456" gradientUnits="userSpaceOnUse">
<stop stop-color="#28BDDA"/>
<stop offset="0.563092" stop-color="#1E5EBF"/>
</linearGradient>
<clipPath id="clip0_3278_8008">
<rect width="27.5622" height="27.5622" rx="3" fill="white"/>
</clipPath>
<clipPath id="clip1_3278_8008">
<rect x="63.1245" width="27.5622" height="27.5622" rx="3" fill="white"/>
</clipPath>
<clipPath id="clip2_3278_8008">
<rect x="94.6865" width="27.5622" height="27.5622" rx="3" fill="white"/>
</clipPath>
<clipPath id="clip3_3278_8008">
<rect x="126.249" width="27.5622" height="27.5622" rx="3" fill="white"/>
</clipPath>
<clipPath id="clip4_3278_8008">
<rect y="31.5622" width="27.5622" height="27.5622" rx="3" fill="white"/>
</clipPath>
<clipPath id="clip5_3278_8008">
<rect x="31.562" y="31.5622" width="27.5622" height="27.5622" rx="3" fill="white"/>
</clipPath>
<clipPath id="clip6_3278_8008">
<rect x="94.6865" y="31.5622" width="27.5622" height="27.5622" rx="3" fill="white"/>
</clipPath>
</defs>
</svg>
